<svg width="64" height="73" viewBox="0 0 64 73" fill="none" xmlns="http://www.w3.org/2000/svg">
<path d="M63.6264 0L57.8298 65.074L31.7742 72.3129L5.79039 65.0842L0 0H63.6264Z" fill="#264DE4"/>
<path d="M52.8674 60.9304L57.8209 5.32161H31.8132V66.7798L52.8674 60.9304Z" fill="#2965F1"/>
<path d="M13.2744 29.4604L13.9883 37.4426H31.8132V29.4604H13.2744Z" fill="#EBEBEB"/>
<path d="M31.8132 13.304H31.7856H11.8398L12.5639 21.2864H31.8132V13.304Z" fill="#EBEBEB"/>
<path d="M31.8132 58.4963V50.1914L31.7782 50.2007L22.9072 47.8002L22.3401 41.4339H18.0294H14.3441L15.4601 53.9673L31.7765 58.5065L31.8132 58.4963Z" fill="#EBEBEB"/>
<path d="M41.5941 37.4426L40.6695 47.7951L31.7856 50.198V58.5026L48.1151 53.9673L48.2349 52.6187L50.1066 31.6039L50.301 29.4604L51.739 13.304H31.7856V21.2864H43.0096L42.2849 29.4604H31.7856V37.4426H41.5941Z" fill="white"/>
</svg>
