<svg width="45" height="44" viewBox="0 0 45 44" fill="none" xmlns="http://www.w3.org/2000/svg">
<path d="M42.8105 5.67749H2.13906C1.09437 5.67749 0.247253 6.50578 0.247253 7.52726V36.4233C0.247253 37.4448 1.09437 38.2731 2.13906 38.2731H42.8105C43.8552 38.2731 44.7023 37.4448 44.7023 36.4233V7.52726C44.7023 6.50578 43.8552 5.67749 42.8105 5.67749ZM42.0103 33.8553C42.0103 34.6952 41.2704 35.3762 40.3576 35.3762H38.4845V13.1452L22.4827 26.6562L6.59099 13.2384V35.3757H4.71795C3.80514 35.3757 3.06521 34.6947 3.06521 33.8549V10.0957C3.06521 9.25581 3.80514 8.57482 4.71795 8.57482H5.47616H6.56728H6.59099V8.59462L22.4827 22.0125L38.3981 8.57482H39.4892H40.3571C41.2699 8.57482 42.0098 9.25581 42.0098 10.0957V33.8553H42.0103Z" fill="#ADAD93"/>
</svg>
