<svg width="45" height="44" viewBox="0 0 45 44" fill="none" xmlns="http://www.w3.org/2000/svg">
<g clip-path="url(#clip0_5_75)">
<path d="M42.5156 0H2.48438C1.11188 0 0 1.08717 0 2.42917V41.5727C0 42.9128 1.11188 44 2.48438 44H24.0375V26.961H18.1725V20.3207H24.0375V15.4238C24.0375 9.7405 27.5869 6.64583 32.7731 6.64583C35.2575 6.64583 37.3913 6.82733 38.0138 6.908V12.848L34.4175 12.8498C31.5975 12.8498 31.0519 14.1607 31.0519 16.082V20.3225H37.7775L36.9019 26.9628H31.0519V44H42.5194C43.8881 44 45 42.9128 45 41.5708V2.42917C45 1.08717 43.8881 0 42.5156 0V0Z" fill="#ADAD93"/>
</g>
<defs>
<clipPath id="clip0_5_75">
<rect width="45" height="44" fill="white"/>
</clipPath>
</defs>
</svg>
