<svg width="70" height="72" viewBox="0 0 70 72" fill="none" xmlns="http://www.w3.org/2000/svg">
<rect width="70" height="72" fill="#1E1E1E"/>
<g clip-path="url(#clip0_2_295)">
<path d="M35 36C35 34.1435 35.7375 32.363 37.0503 31.0503C38.363 29.7375 40.1435 29 42 29C43.8565 29 45.637 29.7375 46.9497 31.0503C48.2625 32.363 49 34.1435 49 36C49 37.8565 48.2625 39.637 46.9497 40.9497C45.637 42.2625 43.8565 43 42 43C40.1435 43 38.363 42.2625 37.0503 40.9497C35.7375 39.637 35 37.8565 35 36Z" fill="#1ABCFE"/>
<path d="M21 50C21 48.1435 21.7375 46.363 23.0503 45.0503C24.363 43.7375 26.1435 43 28 43H35V50C35 51.8565 34.2625 53.637 32.9497 54.9497C31.637 56.2625 29.8565 57 28 57C26.1435 57 24.363 56.2625 23.0503 54.9497C21.7375 53.637 21 51.8565 21 50V50Z" fill="#0ACF83"/>
<path d="M35 15V29H42C43.8565 29 45.637 28.2625 46.9497 26.9497C48.2625 25.637 49 23.8565 49 22C49 20.1435 48.2625 18.363 46.9497 17.0503C45.637 15.7375 43.8565 15 42 15H35Z" fill="#FF7262"/>
<path d="M21 22C21 23.8565 21.7375 25.637 23.0503 26.9497C24.363 28.2625 26.1435 29 28 29H35V15H28C26.1435 15 24.363 15.7375 23.0503 17.0503C21.7375 18.363 21 20.1435 21 22V22Z" fill="#F24E1E"/>
<path d="M21 36C21 37.8565 21.7375 39.637 23.0503 40.9497C24.363 42.2625 26.1435 43 28 43H35V29H28C26.1435 29 24.363 29.7375 23.0503 31.0503C21.7375 32.363 21 34.1435 21 36V36Z" fill="#A259FF"/>
</g>
<defs>
<clipPath id="clip0_2_295">
<rect width="28" height="42" fill="white" transform="translate(21 15)"/>
</clipPath>
</defs>
</svg>
