<svg width="64" height="73" viewBox="0 0 64 73" fill="none" xmlns="http://www.w3.org/2000/svg">
<path d="M5.80271 65.0842L0 0H63.7618L57.953 65.074L31.8419 72.3129L5.80271 65.0842Z" fill="#E34F26"/>
<path d="M31.8809 66.7798L52.9799 60.9303L57.944 5.32159H31.8809V66.7798Z" fill="#EF652A"/>
<path d="M31.8809 29.4604H21.3182L20.5887 21.2864H31.8809V13.304H31.8533H11.8651L12.0561 15.4455L14.018 37.4426H31.8809V29.4604Z" fill="#EBEBEB"/>
<path d="M31.8809 50.1914L31.8459 50.2007L22.956 47.8002L22.3877 41.4339H18.0679H14.3747L15.493 53.9673L31.8442 58.5065L31.8809 58.4963V50.1914Z" fill="#EBEBEB"/>
<path d="M31.8533 29.4604V37.4426H41.6827L40.7561 47.7951L31.8533 50.198V58.5026L48.2175 53.9673L48.3376 52.6187L50.2133 31.6039L50.4081 29.4604H48.2571H31.8533Z" fill="white"/>
<path d="M31.8533 13.304V18.2617V21.2669V21.2864H51.1088H51.1344L51.2946 19.4922L51.6583 15.4455L51.8491 13.304H31.8533Z" fill="white"/>
</svg>
