<svg width="70" height="72" viewBox="0 0 70 72" fill="none" xmlns="http://www.w3.org/2000/svg">
<g clip-path="url(#clip0_2_188)">
<path d="M70 0H0V72H70V0Z" fill="#F7DF1E"/>
<path d="M47.0222 56.2503C48.4322 58.6183 50.2666 60.3589 53.5111 60.3589C56.2366 60.3589 57.9778 58.9577 57.9778 57.0217C57.9778 54.7017 56.1889 53.88 53.1889 52.5303L51.5444 51.8046C46.7978 49.7246 43.6444 47.1189 43.6444 41.6103C43.6444 36.536 47.4033 32.6731 53.2778 32.6731C57.46 32.6731 60.4667 34.1703 62.6333 38.0903L57.5111 41.4731C56.3833 39.3931 55.1666 38.5737 53.2778 38.5737C51.3511 38.5737 50.13 39.8309 50.13 41.4731C50.13 43.5029 51.3522 44.3246 54.1744 45.5817L55.8189 46.3063C61.4078 48.7714 64.5633 51.2846 64.5633 56.9349C64.5633 63.0263 59.9111 66.3634 53.6633 66.3634C47.5544 66.3634 43.6078 63.3691 41.6766 59.4446L47.0222 56.2503ZM23.7855 56.8366C24.8189 58.7223 25.7589 60.3166 28.0189 60.3166C30.18 60.3166 31.5433 59.4469 31.5433 56.0651V33.0594H38.1211V56.1566C38.1211 63.1623 34.1278 66.3509 28.2989 66.3509C23.0322 66.3509 19.9822 63.5474 18.4311 60.1709L23.7855 56.8366Z" fill="black"/>
</g>
<defs>
<clipPath id="clip0_2_188">
<rect width="70" height="72" fill="white"/>
</clipPath>
</defs>
</svg>
