<svg width="45" height="45" viewBox="0 0 45 45" fill="none" xmlns="http://www.w3.org/2000/svg">
<path d="M38.1985 0.0107422H6.80141C3.05003 0.0107422 0.00897217 3.0518 0.00897217 6.80317V38.1967C0.00897217 41.948 3.05003 44.9889 6.80141 44.9889H38.1983C41.9497 44.9889 44.9908 41.9478 44.9908 38.1967V6.80337C44.991 3.052 41.9497 0.0107422 38.1985 0.0107422Z" fill="#ADAD93"/>
<path opacity="0.7811" d="M33.1066 1.93359H11.8932C6.27789 1.93359 1.75726 6.49098 1.75726 12.1518V32.848C1.9391 37.267 2.6383 34.4732 3.96896 29.5797C5.51572 23.8925 10.5526 18.9219 16.687 15.1965C21.3689 12.3532 26.6094 10.5375 36.1489 10.3647C41.559 10.2668 41.0815 3.3433 33.1066 1.93359Z" fill="url(#paint0_linear_114_3)"/>
<path d="M13.6195 37.7666V17.4257H6.8591V37.7666H13.6195ZM10.2406 14.6484C12.5965 14.6484 14.0651 13.0863 14.0651 11.1341C14.0214 9.13857 12.5965 7.61983 10.2848 7.61983C7.97124 7.61983 6.45972 9.13857 6.45972 11.1341C6.45972 13.0863 7.92639 14.6484 10.1959 14.6484H10.2406Z" fill="#26261F"/>
<path d="M17.361 37.7666H24.1225V26.4075C24.1225 25.7992 24.1666 25.1916 24.3454 24.7573C24.833 23.542 25.9463 22.2844 27.8135 22.2844C30.2603 22.2844 31.2383 24.1502 31.2383 26.8843V37.7666H37.9985V26.1031C37.9985 19.8551 34.6638 16.9481 30.215 16.9481C26.5682 16.9481 24.9663 18.986 24.0769 20.3746H24.1225V17.4257H17.361C17.4507 19.3341 17.361 37.7666 17.361 37.7666Z" fill="#26261F"/>
<defs>
<linearGradient id="paint0_linear_114_3" x1="11.449" y1="-6.60039" x2="17.3019" y2="10.4601" gradientUnits="userSpaceOnUse">
<stop stop-color="white"/>
<stop offset="1" stop-color="white" stop-opacity="0"/>
</linearGradient>
</defs>
</svg>
