<svg width="66" height="64" viewBox="0 0 66 64" fill="none" xmlns="http://www.w3.org/2000/svg">
<circle cx="33" cy="32" r="32" fill="#E0E277"/>
<path d="M2.726 43V22.7H11.078C12.876 22.7 14.413 22.99 15.689 23.57C16.9843 24.15 17.98 24.9813 18.676 26.064C19.372 27.1467 19.72 28.4323 19.72 29.921C19.72 31.4097 19.372 32.6953 18.676 33.778C17.98 34.8607 16.9843 35.692 15.689 36.272C14.413 36.852 12.876 37.142 11.078 37.142H4.814L6.496 35.373V43H2.726ZM6.496 35.779L4.814 33.952H10.904C12.5667 33.952 13.8137 33.604 14.645 32.908C15.4957 32.1927 15.921 31.197 15.921 29.921C15.921 28.6257 15.4957 27.63 14.645 26.934C13.8137 26.238 12.5667 25.89 10.904 25.89H4.814L6.496 24.034V35.779ZM37.7528 22.7H41.5228V43H37.7528V22.7ZM27.2548 43H23.4848V22.7H27.2548V43ZM38.0428 34.3H26.9358V31.081H38.0428V34.3ZM46.9623 43V22.7H55.3143C57.1123 22.7 58.6493 22.99 59.9253 23.57C61.2207 24.15 62.2163 24.9813 62.9123 26.064C63.6083 27.1467 63.9563 28.4323 63.9563 29.921C63.9563 31.4097 63.6083 32.6953 62.9123 33.778C62.2163 34.8413 61.2207 35.663 59.9253 36.243C58.6493 36.8037 57.1123 37.084 55.3143 37.084H49.0503L50.7323 35.373V43H46.9623ZM60.2443 43L55.1113 35.634H59.1423L64.3043 43H60.2443ZM50.7323 35.779L49.0503 33.981H55.1403C56.803 33.981 58.05 33.6233 58.8813 32.908C59.732 32.1927 60.1573 31.197 60.1573 29.921C60.1573 28.6257 59.732 27.63 58.8813 26.934C58.05 26.238 56.803 25.89 55.1403 25.89H49.0503L50.7323 24.034V35.779Z" fill="#191914"/>
</svg>
