<svg width="45" height="46" viewBox="0 0 45 46" fill="none" xmlns="http://www.w3.org/2000/svg">
<path fill-rule="evenodd" clip-rule="evenodd" d="M38.5525 7.24924C34.409 3.10079 28.8984 0.815449 23.0276 0.812988C10.9306 0.812988 1.08557 10.6576 1.08065 22.7579C1.07918 26.6259 2.08947 30.4013 4.01016 33.7299L0.896606 45.1025L12.531 42.0505C15.7365 43.7989 19.3456 44.7206 23.0187 44.7216H23.0276C23.0281 44.7216 23.0271 44.7216 23.0276 44.7216C35.123 44.7216 44.9691 34.876 44.974 22.7752C44.9765 16.9112 42.6961 11.3977 38.5525 7.24924ZM14.1151 23.5566C13.841 23.1905 11.876 20.5833 11.876 17.8841C11.876 15.1849 13.2927 13.8582 13.7952 13.3095C14.2976 12.7608 14.8921 12.6235 15.2577 12.6235C15.6234 12.6235 15.9895 12.627 16.3089 12.6427C16.6455 12.6599 17.0977 12.5148 17.5426 13.5841C17.9997 14.682 19.0961 17.3817 19.2334 17.6558C19.3707 17.9304 19.4618 18.2503 19.2792 18.6164C19.0966 18.982 19.0051 19.2108 18.731 19.5312C18.4569 19.8516 18.1552 20.2462 17.9082 20.4918C17.6336 20.7654 17.3477 21.0621 17.6676 21.6108C17.9874 22.16 19.0878 23.9557 20.7181 25.4099C22.8125 27.2784 24.5797 27.8571 25.1279 28.1317C25.6761 28.4063 25.996 28.3606 26.3158 27.9944C26.6357 27.6283 27.6868 26.3931 28.0525 25.8444C28.4181 25.2957 28.7837 25.3873 29.2862 25.5698C29.7891 25.7529 32.4849 27.0796 33.0331 27.3537C33.5813 27.6283 33.9469 27.7656 34.0842 27.9944C34.2215 28.2233 34.2215 29.3212 33.7643 30.6021C33.3072 31.8831 31.1163 33.0523 30.0627 33.2093C29.1179 33.3505 27.9226 33.4096 26.6086 32.9918C25.8124 32.7393 24.7908 32.4017 23.4823 31.8368C17.982 29.4614 14.3897 23.9228 14.1151 23.5566Z" fill="#ADAD93"/>
</svg>
